HIERARCHY
ROOT Hips
{
	OFFSET 0.00 0.00 0.00
	CHANNELS 6 Xposition Yposition Zposition Xrotation Yrotation Zrotation
	JOINT Spine
	{
		OFFSET 0.00000 5.19526 0.00000
		CHANNELS 3 Xrotation Yrotation Zrotation
		JOINT Head
		{
			OFFSET 0.00000 15.65388 0.00000
			CHANNELS 3 Xrotation Yrotation Zrotation
			End Site
			{
				OFFSET 0.00000 4.52755 0.00000
			}
		}
		JOINT LeftShoulder
		{
			OFFSET 0.00000 10.32977 0.00000
			CHANNELS 3 Xrotation Yrotation Zrotation
			JOINT LeftArm
			{
				OFFSET 6.99601 0.00000 0.00000
				CHANNELS 3 Xrotation Yrotation Zrotation
				JOINT LeftForeArm
				{
					OFFSET 10.20930 0.00000 0.00000
					CHANNELS 3 Yrotation Zrotation Xrotation
					JOINT LeftHand
					{
						OFFSET 8.56316 0.00000 0.00000
						CHANNELS 3 Xrotation Yrotation Zrotation
						JOINT LeftHandThumb1
						{
							OFFSET 0.00000 0.00000 0.00000
							CHANNELS 3 Xrotation Zrotation Yrotation
							End Site
							{
								OFFSET 0.00000 0.00000 3.93700
							}
						}
						End Site
						{
							OFFSET 3.93700 0.00000 0.00000
						}
					}
				}
			}
		}
		JOINT RightShoulder
		{
			OFFSET 0.00000 10.32977 0.00000
			CHANNELS 3 Xrotation Yrotation Zrotation
			JOINT RightArm
			{
				OFFSET -6.99601 0.00000 0.00000
				CHANNELS 3 Xrotation Yrotation Zrotation
				JOINT RightForeArm
				{
					OFFSET -10.20930 0.00000 0.00000
					CHANNELS 3 Yrotation Zrotation Xrotation
					JOINT RightHand
					{
						OFFSET -8.56316 0.00000 0.00000
						CHANNELS 3 Xrotation Yrotation Zrotation
						JOINT RightHandThumb1
						{
							OFFSET 0.00000 0.00000 0.00000
							CHANNELS 3 Xrotation Zrotation Yrotation
							End Site
							{
								OFFSET 0.00000 0.00000 3.93700
							}
						}
						End Site
						{
							OFFSET -3.93700 0.00000 0.00000
						}
					}
				}
			}
		}
	}
	JOINT LeftUpLeg
	{
		OFFSET 3.35136 0.00000 0.00000
		CHANNELS 3 Xrotation Yrotation Zrotation
		JOINT LeftLeg
		{
			OFFSET 0.00000 -16.34683 0.00000
			CHANNELS 3 Xrotation Yrotation Zrotation
			JOINT LeftFoot
			{
				OFFSET 0.00000 -13.95979 0.00000
				CHANNELS 3 Xrotation Yrotation Zrotation
				JOINT LeftToeBase
				{
					OFFSET 0.00000 -1.33694 4.98954
					CHANNELS 3 Xrotation Yrotation Zrotation
					End Site
					{
						OFFSET 0.00000 0.00000 2.95275
					}
				}
			}
		}
	}
	JOINT RightUpLeg
	{
		OFFSET -3.35136 0.00000 0.00000
		CHANNELS 3 Xrotation Yrotation Zrotation
		JOINT RightLeg
		{
			OFFSET 0.00000 -16.34683 0.00000
			CHANNELS 3 Xrotation Yrotation Zrotation
			JOINT RightFoot
			{
				OFFSET 0.00000 -13.95979 0.00000
				CHANNELS 3 Xrotation Yrotation Zrotation
				JOINT RightToeBase
				{
					OFFSET 0.00000 -1.33694 4.98954
					CHANNELS 3 Xrotation Yrotation Zrotation
					End Site
					{
						OFFSET 0.00000 0.00000 2.95275
					}
				}
			}
		}
	}
}
MOTION
Frames: 11
Frame Time: 0.008333
 -0.3716 31.6513 -6.2788 0.5287 -5.1581 -13.9586 8.3125 -8.7064 3.4414 10.8983 -24.4492 15.2829 10.3168 17.9017 16.6518 -22.4791 24.7370 -62.9742 -128.7153 -0.0000 -0.7449 -8.2640 20.0616 22.9484 33.1476 -0.0000 26.2537 3.6825 -15.5642 -4.8256 -0.2683 25.0078 74.8166 27.8451 -0.0000 29.7411 2.8826 -14.1209 11.6619 32.8623 0.0000 -24.3270 -9.9830 15.5515 3.7900 25.6811 0.0000 -0.0000 -32.7955 35.4112 1.7401 9.2016 -0.0000 -0.0000 -80.0752 -16.1290 -26.6945 92.6054 -0.0000 0.0000 -13.6062 -30.3735 -3.9287 3.0392 -0.0000 0.0000
 -0.3726 31.6568 -6.2736 0.6237 -5.1741 -13.9353 8.1862 -8.7799 3.3819 10.8921 -24.6456 15.3859 10.3594 17.9846 16.5997 -22.5757 24.9120 -62.7743 -128.6634 -0.0000 -0.5646 -8.3581 20.1112 23.1363 33.1476 -0.0000 26.2537 3.7201 -15.5692 -4.7805 -0.2372 24.7836 74.8307 27.9179 -0.0000 29.7869 2.8643 -14.0623 11.6356 32.8623 0.0000 -24.3270 -10.0476 15.6618 3.7993 25.6195 -0.0000 0.0000 -32.7550 35.4242 1.5150 9.3024 0.0000 -0.0000 -80.0378 -16.1885 -26.7780 92.5272 0.0000 -0.0000 -13.6506 -30.4220 -4.0512 3.1289 -0.0000 0.0000
 -0.3762 31.6619 -6.2685 0.7142 -5.1843 -13.9265 8.0756 -8.8537 3.3223 10.8873 -24.9157 15.5070 10.4444 18.0802 16.5660 -22.6623 25.0579 -62.5682 -128.6479 -0.0000 -0.4371 -8.3970 20.1170 23.2282 33.1476 -0.0000 26.2537 3.7469 -15.5942 -4.7310 -0.2242 24.5788 74.8341 28.0170 -0.0000 29.8224 2.8589 -14.0910 11.5916 32.8623 0.0000 -24.3270 -10.1293 15.7759 3.8300 25.5898 -0.0000 -0.0000 -32.7167 35.4171 1.3034 9.4094 -0.0000 0.0000 -79.9880 -16.2918 -26.8748 92.4314 -0.0000 0.0000 -13.7000 -30.5708 -3.9265 3.1556 0.0000 0.0000
 -0.3806 31.6650 -6.2621 0.8057 -5.2248 -13.9255 7.9527 -8.8819 3.2624 10.8957 -25.2206 15.6579 10.5666 18.1899 16.5388 -22.7952 25.2214 -62.4243 -128.6647 -0.0000 -0.3470 -8.4485 20.1414 23.3333 33.1476 -0.0000 26.2537 3.7309 -15.6302 -4.7220 -0.1736 24.3084 74.8503 28.1776 -0.0000 29.8661 2.8394 -14.0718 11.5297 32.8623 0.0000 -24.3270 -10.2708 16.0322 3.9049 25.6334 -0.0000 0.0000 -32.6258 35.3001 1.1937 9.4042 0.0000 0.0000 -79.9680 -16.4397 -26.9735 92.3342 0.0000 -0.0000 -13.7052 -30.6476 -3.9391 3.2412 -0.0000 -0.0000
 -0.3826 31.6673 -6.2560 0.8937 -5.2674 -13.9143 7.8448 -8.9108 3.1962 10.8721 -25.5177 15.8114 10.6581 18.2856 16.5220 -22.8486 25.3444 -62.2879 -128.7161 -0.0000 -0.1763 -8.5411 20.1168 23.5892 33.1476 -0.0000 26.2537 3.7023 -15.6476 -4.7133 -0.1149 23.9330 74.8552 28.4450 -0.0000 29.9901 2.8211 -14.0947 11.4394 32.8623 0.0000 -24.3270 -10.3711 16.1779 3.9255 25.6182 -0.0000 -0.0000 -32.5619 35.2598 1.2390 9.2261 -0.0000 -0.0000 -79.9530 -16.5882 -27.0977 92.2439 -0.0000 -0.0000 -13.6209 -30.6883 -3.9155 3.0542 0.0000 0.0000
 -0.3822 31.6670 -6.2531 0.9749 -5.3284 -13.9149 7.7621 -8.9144 3.1579 10.8065 -25.8434 15.9292 10.7515 18.3800 16.4786 -22.9432 25.5061 -62.1187 -128.8111 -0.0000 -0.3524 -8.5101 20.0865 23.5420 33.1476 -0.0000 26.2537 3.6670 -15.6600 -4.7401 -0.0897 23.4913 74.8661 28.7909 -0.0000 30.1685 2.8180 -14.1498 11.3845 32.8623 0.0000 -24.3270 -10.4730 16.3160 3.9393 25.6089 -0.0000 -0.0000 -32.5108 35.1823 1.4834 8.8625 -0.0000 0.0000 -79.9498 -16.7910 -27.2465 92.1213 0.0000 -0.0000 -13.5785 -30.7152 -3.7408 3.2514 -0.0000 0.0000
 -0.3778 31.6640 -6.2461 1.0395 -5.3814 -13.8903 7.6960 -8.9125 3.0942 10.7302 -26.2118 16.0701 10.8052 18.4606 16.4697 -22.9657 25.6124 -62.0355 -128.9392 -0.0000 -0.3022 -8.6113 20.1681 23.7129 33.1476 -0.0000 26.2537 3.6745 -15.6765 -4.7549 -0.0695 23.1145 74.8457 29.1855 -0.0000 30.3751 2.7304 -14.4308 10.8335 32.8623 0.0000 -24.3270 -10.5328 16.4739 3.9073 25.5471 0.0000 0.0000 -32.5173 35.2127 1.6837 8.6994 0.0000 0.0000 -79.9591 -16.9720 -27.4433 92.0314 -0.0000 0.0000 -13.5470 -30.7306 -3.7207 3.2900 -0.0000 0.0000
 -0.3723 31.6592 -6.2375 1.0864 -5.4219 -13.8477 7.6492 -8.9041 3.0183 10.6521 -26.5974 16.1919 10.8963 18.5286 16.4208 -23.0074 25.6672 -61.8822 -129.0808 -0.0000 -0.3558 -8.6222 20.1384 23.7697 33.1476 -0.0000 26.2537 3.6956 -15.6877 -4.7956 -0.0911 22.5947 74.8382 29.6548 -0.0000 30.5930 2.6828 -14.4926 10.6054 32.8623 0.0000 -24.3270 -10.5481 16.5875 3.8421 25.4688 0.0000 -0.0000 -32.5290 35.1635 2.0567 8.3545 -0.0000 0.0000 -79.9478 -17.1297 -27.6728 91.9424 -0.0000 0.0000 -13.5181 -30.6827 -3.6606 3.3472 -0.0000 0.0000
 -0.3646 31.6528 -6.2312 1.1616 -5.4505 -13.7996 7.5840 -8.9076 2.9568 10.5674 -27.0256 16.3017 10.9500 18.5697 16.3622 -23.0357 25.7485 -61.7091 -129.2614 -0.0000 -0.6237 -8.5535 20.1349 23.6021 33.1476 -0.0000 26.2537 3.6794 -15.6855 -4.8380 -0.0705 22.0656 74.7881 30.1877 -0.0000 30.7390 2.6250 -14.5886 10.3164 32.8623 0.0000 -24.3270 -10.5868 16.6801 3.7601 25.3986 0.0000 -0.0000 -32.5564 35.1243 2.3806 8.1623 0.0000 -0.0000 -79.9971 -17.2955 -27.9637 91.8750 0.0000 -0.0000 -13.5995 -30.6815 -3.6324 3.3540 -0.0000 0.0000
 -0.3562 31.6459 -6.2253 1.2306 -5.4680 -13.7692 7.5353 -8.9086 2.9205 10.4799 -27.4599 16.3886 11.0078 18.6275 16.3000 -23.0913 25.7676 -61.5846 -129.4464 -0.0000 -0.8348 -8.5088 20.1449 23.4806 33.1476 -0.0000 26.2537 3.6864 -15.6869 -4.8814 -0.0712 21.6144 74.6927 30.7622 0.0000 30.7086 2.5496 -14.6927 9.9576 32.8623 0.0000 -24.3270 -10.6275 16.7578 3.6956 25.3439 0.0000 0.0000 -32.6147 35.0576 2.7321 8.0476 -0.0000 0.0000 -80.0245 -17.4736 -28.2664 91.7871 -0.0000 -0.0000 -13.6429 -30.6719 -3.5319 3.1493 0.0000 -0.0000
 -0.3504 31.6393 -6.2252 1.3061 -5.4858 -13.7403 7.5012 -8.9018 2.8727 10.4032 -27.8827 16.5036 11.0279 18.6311 16.2769 -23.0783 25.7883 -61.4661 -129.6615 -0.0000 -0.9969 -8.5024 20.1548 23.4547 33.1476 -0.0000 26.2537 3.6740 -15.6708 -4.9234 -0.0857 21.1738 74.5970 31.3141 0.0000 30.6469 2.3943 -14.7391 9.3330 32.8623 0.0000 -24.3270 -10.6913 16.8179 3.6403 25.3205 0.0000 -0.0000 -32.6350 34.9355 3.0681 7.8686 -0.0000 0.0000 -80.0524 -17.6362 -28.5553 91.6956 -0.0000 -0.0000 -13.6896 -30.6734 -3.5670 3.2646 0.0000 0.0000
